<?xml version="1.0" standalone="no"?>
<!DOCTYPE svg PUBLIC "-//W3C//DTD SVG 20010904//EN"
 "http://www.w3.org/TR/2001/REC-SVG-20010904/DTD/svg10.dtd">
<svg version="1.0" xmlns="http://www.w3.org/2000/svg"
 width="200.000000pt" height="200.000000pt" viewBox="0 0 200.000000 200.000000"
 preserveAspectRatio="xMidYMid meet">
<metadata>
Created by potrace 1.11, written by Peter Selinger 2001-2013
</metadata>
<g transform="translate(0.000000,200.000000) scale(0.100000,-0.100000)"
fill="#000000" stroke="none">
<path d="M484 1986 c-10 -7 -44 -26 -74 -43 -50 -28 -138 -78 -215 -123 -16
-10 -59 -34 -95 -55 -36 -20 -71 -41 -77 -47 -10 -8 -13 -79 -13 -293 l0 -283
138 -78 c75 -43 149 -85 163 -94 15 -8 64 -37 110 -63 l84 -48 0 -272 c-1
-150 1 -279 3 -287 3 -16 470 -290 493 -290 8 0 51 23 97 50 46 28 84 50 86
50 2 0 72 40 157 89 l154 89 0 278 c0 154 4 284 8 291 4 6 57 40 118 75 62 34
123 70 138 78 14 9 72 42 129 74 l102 58 0 283 0 284 -28 18 c-51 34 -67 43
-97 59 -33 16 -48 25 -235 134 -69 40 -129 73 -135 73 -9 0 -313 -171 -325
-183 -3 -3 -21 -13 -40 -24 -19 -10 -58 -31 -86 -47 -29 -16 -55 -24 -60 -19
-5 4 -25 17 -44 28 -19 11 -100 57 -180 104 -269 156 -254 149 -276 134z
m1120 -272 c3 -8 2 -12 -4 -9 -6 3 -10 10 -10 16 0 14 7 11 14 -7z m-1454 -34
c0 -5 -2 -10 -4 -10 -3 0 -8 5 -11 10 -3 6 -1 10 4 10 6 0 11 -4 11 -10z"/>
</g>
</svg>
